<mxfile host="app.diagrams.net" modified="2021-06-07T06:29:28.005Z" agent="5.0 (Macintosh; Intel Mac OS X 10_15_7) AppleWebKit/537.36 (KHTML, like Gecko) Chrome/91.0.4472.77 Safari/537.36" etag="cnMu-guKlk-ex5fxLOdr" version="14.7.3" type="github">
  <diagram id="jikfgfJhN1Udf3yzA06Y" name="Page-1">
    <mxGraphModel dx="1255" dy="786" grid="1" gridSize="10" guides="1" tooltips="1" connect="1" arrows="1" fold="1" page="1" pageScale="1" pageWidth="827" pageHeight="1169" math="0" shadow="0">
      <root>
        <mxCell id="0" />
        <mxCell id="1" parent="0" />
        <mxCell id="Yz5xoKtZZaxIjxsNcwPe-15" value="" style="rounded=0;whiteSpace=wrap;html=1;dashed=1;fillColor=none;" parent="1" vertex="1">
          <mxGeometry x="10" y="220" width="360" height="330" as="geometry" />
        </mxCell>
        <mxCell id="Yz5xoKtZZaxIjxsNcwPe-1" value="clickhouse" style="shape=cylinder3;whiteSpace=wrap;html=1;boundedLbl=1;backgroundOutline=1;size=15;" parent="1" vertex="1">
          <mxGeometry x="270" y="330" width="60" height="80" as="geometry" />
        </mxCell>
        <mxCell id="Yz5xoKtZZaxIjxsNcwPe-2" value="头条" style="rounded=0;whiteSpace=wrap;html=1;" parent="1" vertex="1">
          <mxGeometry x="30" y="260" width="80" height="40" as="geometry" />
        </mxCell>
        <mxCell id="Yz5xoKtZZaxIjxsNcwPe-3" value="AMS" style="rounded=0;whiteSpace=wrap;html=1;" parent="1" vertex="1">
          <mxGeometry x="30" y="320" width="80" height="40" as="geometry" />
        </mxCell>
        <mxCell id="Yz5xoKtZZaxIjxsNcwPe-4" value="baidu" style="rounded=0;whiteSpace=wrap;html=1;" parent="1" vertex="1">
          <mxGeometry x="30" y="380" width="80" height="40" as="geometry" />
        </mxCell>
        <mxCell id="Yz5xoKtZZaxIjxsNcwPe-5" value="Oppo" style="rounded=0;whiteSpace=wrap;html=1;" parent="1" vertex="1">
          <mxGeometry x="30" y="440" width="80" height="40" as="geometry" />
        </mxCell>
        <mxCell id="Yz5xoKtZZaxIjxsNcwPe-6" value="。&lt;br&gt;。&lt;br&gt;。" style="text;html=1;strokeColor=none;fillColor=none;align=center;verticalAlign=middle;whiteSpace=wrap;rounded=0;" parent="1" vertex="1">
          <mxGeometry x="50" y="500" width="40" height="20" as="geometry" />
        </mxCell>
        <mxCell id="Yz5xoKtZZaxIjxsNcwPe-7" value="" style="endArrow=classic;html=1;exitX=1;exitY=0.5;exitDx=0;exitDy=0;entryX=0;entryY=0.5;entryDx=0;entryDy=0;entryPerimeter=0;" parent="1" source="Yz5xoKtZZaxIjxsNcwPe-2" target="Yz5xoKtZZaxIjxsNcwPe-1" edge="1">
          <mxGeometry width="50" height="50" relative="1" as="geometry">
            <mxPoint x="160" y="280" as="sourcePoint" />
            <mxPoint x="210" y="230" as="targetPoint" />
          </mxGeometry>
        </mxCell>
        <mxCell id="Yz5xoKtZZaxIjxsNcwPe-8" value="ctr" style="edgeLabel;html=1;align=center;verticalAlign=middle;resizable=0;points=[];" parent="Yz5xoKtZZaxIjxsNcwPe-7" vertex="1" connectable="0">
          <mxGeometry x="-0.0012" y="2" relative="1" as="geometry">
            <mxPoint as="offset" />
          </mxGeometry>
        </mxCell>
        <mxCell id="Yz5xoKtZZaxIjxsNcwPe-9" value="" style="endArrow=classic;html=1;exitX=1;exitY=0.5;exitDx=0;exitDy=0;" parent="1" source="Yz5xoKtZZaxIjxsNcwPe-3" edge="1">
          <mxGeometry width="50" height="50" relative="1" as="geometry">
            <mxPoint x="120" y="290" as="sourcePoint" />
            <mxPoint x="270" y="370" as="targetPoint" />
          </mxGeometry>
        </mxCell>
        <mxCell id="Yz5xoKtZZaxIjxsNcwPe-10" value="cvr" style="edgeLabel;html=1;align=center;verticalAlign=middle;resizable=0;points=[];" parent="Yz5xoKtZZaxIjxsNcwPe-9" vertex="1" connectable="0">
          <mxGeometry x="-0.0012" y="2" relative="1" as="geometry">
            <mxPoint as="offset" />
          </mxGeometry>
        </mxCell>
        <mxCell id="Yz5xoKtZZaxIjxsNcwPe-11" value="" style="endArrow=classic;html=1;exitX=1;exitY=0.5;exitDx=0;exitDy=0;entryX=0;entryY=0;entryDx=0;entryDy=52.5;entryPerimeter=0;" parent="1" source="Yz5xoKtZZaxIjxsNcwPe-4" target="Yz5xoKtZZaxIjxsNcwPe-1" edge="1">
          <mxGeometry width="50" height="50" relative="1" as="geometry">
            <mxPoint x="120" y="350" as="sourcePoint" />
            <mxPoint x="280" y="380" as="targetPoint" />
          </mxGeometry>
        </mxCell>
        <mxCell id="Yz5xoKtZZaxIjxsNcwPe-12" value="消耗" style="edgeLabel;html=1;align=center;verticalAlign=middle;resizable=0;points=[];" parent="Yz5xoKtZZaxIjxsNcwPe-11" vertex="1" connectable="0">
          <mxGeometry x="-0.0012" y="2" relative="1" as="geometry">
            <mxPoint as="offset" />
          </mxGeometry>
        </mxCell>
        <mxCell id="Yz5xoKtZZaxIjxsNcwPe-13" value="" style="endArrow=classic;html=1;exitX=1;exitY=0.5;exitDx=0;exitDy=0;entryX=0;entryY=1;entryDx=0;entryDy=-15;entryPerimeter=0;" parent="1" source="Yz5xoKtZZaxIjxsNcwPe-5" target="Yz5xoKtZZaxIjxsNcwPe-1" edge="1">
          <mxGeometry width="50" height="50" relative="1" as="geometry">
            <mxPoint x="120" y="410" as="sourcePoint" />
            <mxPoint x="250" y="393" as="targetPoint" />
          </mxGeometry>
        </mxCell>
        <mxCell id="Yz5xoKtZZaxIjxsNcwPe-14" value="成本" style="edgeLabel;html=1;align=center;verticalAlign=middle;resizable=0;points=[];" parent="Yz5xoKtZZaxIjxsNcwPe-13" vertex="1" connectable="0">
          <mxGeometry x="-0.0012" y="2" relative="1" as="geometry">
            <mxPoint as="offset" />
          </mxGeometry>
        </mxCell>
        <mxCell id="Yz5xoKtZZaxIjxsNcwPe-16" value="linceyou" style="text;html=1;strokeColor=none;fillColor=none;align=center;verticalAlign=middle;whiteSpace=wrap;rounded=0;dashed=1;" parent="1" vertex="1">
          <mxGeometry x="170" y="190" width="70" height="20" as="geometry" />
        </mxCell>
        <mxCell id="Yz5xoKtZZaxIjxsNcwPe-18" value="" style="rounded=0;whiteSpace=wrap;html=1;dashed=1;fillColor=none;" parent="1" vertex="1">
          <mxGeometry x="490" y="220" width="330" height="330" as="geometry" />
        </mxCell>
        <mxCell id="Yz5xoKtZZaxIjxsNcwPe-19" value="规则模块" style="rounded=0;whiteSpace=wrap;html=1;" parent="1" vertex="1">
          <mxGeometry x="580" y="250" width="110" height="120" as="geometry" />
        </mxCell>
        <mxCell id="Yz5xoKtZZaxIjxsNcwPe-20" value="指标模块" style="rounded=0;whiteSpace=wrap;html=1;" parent="1" vertex="1">
          <mxGeometry x="530" y="250" width="30" height="270" as="geometry" />
        </mxCell>
        <mxCell id="Yz5xoKtZZaxIjxsNcwPe-21" value="" style="endArrow=classic;html=1;exitX=1;exitY=0.5;exitDx=0;exitDy=0;entryX=0;entryY=0.5;entryDx=0;entryDy=0;" parent="1" source="Yz5xoKtZZaxIjxsNcwPe-15" target="Yz5xoKtZZaxIjxsNcwPe-18" edge="1">
          <mxGeometry width="50" height="50" relative="1" as="geometry">
            <mxPoint x="410" y="450" as="sourcePoint" />
            <mxPoint x="460" y="400" as="targetPoint" />
          </mxGeometry>
        </mxCell>
        <mxCell id="Yz5xoKtZZaxIjxsNcwPe-22" value="调度模块" style="rounded=0;whiteSpace=wrap;html=1;" parent="1" vertex="1">
          <mxGeometry x="580" y="390" width="110" height="130" as="geometry" />
        </mxCell>
        <mxCell id="Yz5xoKtZZaxIjxsNcwPe-23" value="执行模块" style="rounded=0;whiteSpace=wrap;html=1;" parent="1" vertex="1">
          <mxGeometry x="710" y="250" width="90" height="270" as="geometry" />
        </mxCell>
        <mxCell id="Yz5xoKtZZaxIjxsNcwPe-24" value="广告平台API" style="rounded=0;whiteSpace=wrap;html=1;fillColor=#ffffff;" parent="1" vertex="1">
          <mxGeometry x="940" y="220" width="90" height="330" as="geometry" />
        </mxCell>
        <mxCell id="Yz5xoKtZZaxIjxsNcwPe-27" value="" style="endArrow=classic;html=1;exitX=1;exitY=0.5;exitDx=0;exitDy=0;entryX=0;entryY=0.25;entryDx=0;entryDy=0;" parent="1" source="Yz5xoKtZZaxIjxsNcwPe-23" target="Yz5xoKtZZaxIjxsNcwPe-24" edge="1">
          <mxGeometry width="50" height="50" relative="1" as="geometry">
            <mxPoint x="820" y="350" as="sourcePoint" />
            <mxPoint x="870" y="300" as="targetPoint" />
          </mxGeometry>
        </mxCell>
        <mxCell id="Yz5xoKtZZaxIjxsNcwPe-30" value="启动" style="edgeLabel;html=1;align=center;verticalAlign=middle;resizable=0;points=[];" parent="Yz5xoKtZZaxIjxsNcwPe-27" vertex="1" connectable="0">
          <mxGeometry x="0.2204" y="-1" relative="1" as="geometry">
            <mxPoint as="offset" />
          </mxGeometry>
        </mxCell>
        <mxCell id="Yz5xoKtZZaxIjxsNcwPe-28" value="" style="endArrow=classic;html=1;exitX=1;exitY=0.5;exitDx=0;exitDy=0;entryX=0;entryY=0.5;entryDx=0;entryDy=0;" parent="1" source="Yz5xoKtZZaxIjxsNcwPe-23" target="Yz5xoKtZZaxIjxsNcwPe-24" edge="1">
          <mxGeometry width="50" height="50" relative="1" as="geometry">
            <mxPoint x="810" y="395" as="sourcePoint" />
            <mxPoint x="950" y="327.5" as="targetPoint" />
          </mxGeometry>
        </mxCell>
        <mxCell id="Yz5xoKtZZaxIjxsNcwPe-31" value="关闭" style="edgeLabel;html=1;align=center;verticalAlign=middle;resizable=0;points=[];" parent="Yz5xoKtZZaxIjxsNcwPe-28" vertex="1" connectable="0">
          <mxGeometry x="0.2429" y="1" relative="1" as="geometry">
            <mxPoint as="offset" />
          </mxGeometry>
        </mxCell>
        <mxCell id="Yz5xoKtZZaxIjxsNcwPe-29" value="" style="endArrow=classic;html=1;exitX=1;exitY=0.5;exitDx=0;exitDy=0;entryX=0;entryY=0.75;entryDx=0;entryDy=0;" parent="1" source="Yz5xoKtZZaxIjxsNcwPe-23" target="Yz5xoKtZZaxIjxsNcwPe-24" edge="1">
          <mxGeometry width="50" height="50" relative="1" as="geometry">
            <mxPoint x="810" y="395" as="sourcePoint" />
            <mxPoint x="950" y="395" as="targetPoint" />
          </mxGeometry>
        </mxCell>
        <mxCell id="Yz5xoKtZZaxIjxsNcwPe-32" value="调整" style="edgeLabel;html=1;align=center;verticalAlign=middle;resizable=0;points=[];" parent="Yz5xoKtZZaxIjxsNcwPe-29" vertex="1" connectable="0">
          <mxGeometry x="0.2032" y="2" relative="1" as="geometry">
            <mxPoint x="-1" as="offset" />
          </mxGeometry>
        </mxCell>
        <mxCell id="4W7vT4dKC4OoBjbDfiuC-1" value="morgan" style="text;html=1;strokeColor=none;fillColor=none;align=center;verticalAlign=middle;whiteSpace=wrap;rounded=0;dashed=1;" vertex="1" parent="1">
          <mxGeometry x="950" y="190" width="70" height="20" as="geometry" />
        </mxCell>
      </root>
    </mxGraphModel>
  </diagram>
</mxfile>
